<?xml version="1.0" encoding="UTF-8" standalone="no"?>
<!DOCTYPE svg PUBLIC "-//W3C//DTD SVG 1.1//EN" "http://www.w3.org/Graphics/SVG/1.1/DTD/svg11.dtd">
<svg width="100%" height="100%" viewBox="0 0 690 808" version="1.1" xmlns="http://www.w3.org/2000/svg" xmlns:xlink="http://www.w3.org/1999/xlink" xml:space="preserve" xmlns:serif="http://www.serif.com/" style="fill-rule:evenodd;clip-rule:evenodd;stroke-linejoin:round;stroke-miterlimit:2;">
    <g id="ArtBoard1" transform="matrix(1,0,0,1,-91.5,-129.406)">
        <rect x="91.5" y="129.406" width="689.757" height="807.594" style="fill:none;"/>
        <clipPath id="_clip1">
            <rect x="91.5" y="129.406" width="689.757" height="807.594"/>
        </clipPath>
        <g clip-path="url(#_clip1)">
            <g transform="matrix(1,0,0,1,0.5,0.406237)">
                <path d="M357.5,138.5C350.366,137.307 343.2,136.307 336,135.5C313.843,135.5 293.563,147.054 276.5,162C283.901,158.136 292.167,153.25 299.5,151C306.239,148.932 313.43,148.008 320.5,148.5C320.333,148.833 320.167,149.167 320,149.5C313.167,154.333 288.561,165.022 277.975,179.224C260.937,198.95 244.025,235.654 240.5,235.5C239.78,227.196 244,209.237 244,207.5C239.057,220.33 233.723,232.996 228,245.5C226.333,247.5 224.667,249.5 223,251.5C220.005,211.164 233.505,177.331 263.5,150C292.464,127.148 323.797,123.314 357.5,138.5Z" style="fill:rgb(254,255,254);"/>
            </g>
            <g transform="matrix(1,0,0,1,0.5,0.406237)">
                <path d="M405.237,144.555C427.927,139.534 451.439,145.245 467.781,150.504C481.671,154.974 493.806,166.206 503.289,176.109C512.512,185.742 520.557,200.025 524.675,209.923C527.978,217.861 526.918,227.176 528,235.5C536.466,241.149 605.229,273 660.5,320C677.199,334.2 724.776,388.175 745,425.5C752.697,440.123 769.885,487.271 771,491.5C784.093,542.085 784.531,607.79 773,642.5C766.449,667.341 757.291,687.208 742,710.5C719.017,740.484 693.685,765.026 660.5,787C659.811,787.32 622.5,810 589.5,819C574.833,823 559.559,828.083 544.275,831.334C507.442,839.167 426.695,850.356 368.5,866C334.53,876.492 302.196,890.492 271.5,908C270.5,908.667 269.5,908.667 268.5,908C284.4,892.461 302.734,880.461 323.5,872C359.891,856.315 397.557,844.648 436.5,837C464.073,831.793 491.74,827.127 519.5,823C554.955,817.22 589.289,807.554 622.5,794C674.137,769.698 714.303,732.864 743,683.5C765.75,636.921 773.417,587.921 766,536.5C762.646,513.441 756.646,491.108 748,469.5C741,454.167 734,438.833 727,423.5C688.586,359.419 636.753,309.252 571.5,273C563.009,268.922 528.377,252.626 519.5,248.5C517.272,207.801 497.606,179.301 460.5,163C440.762,155.321 420.429,152.987 399.5,156C391.499,157.234 383.499,158.401 375.5,159.5C375.744,156.737 394.405,146.952 405.237,144.555Z" style="fill:rgb(254,255,254);"/>
            </g>
            <g transform="matrix(1,0,0,1,0.5,0.406237)">
                <path d="M221.5,172.5C222.376,172.369 223.043,172.702 223.5,173.5C206.279,203.105 200.445,234.771 206,268.5C199.5,273.667 193,278.833 186.5,284C177.643,289.63 176.143,287.463 182,277.5C186.419,273.15 190.752,268.816 195,264.5C195.478,238.778 200.811,214.111 211,190.5C214.259,184.308 217.759,178.308 221.5,172.5Z" style="fill:rgb(254,255,254);"/>
            </g>
            <g transform="matrix(1,0,0,1,0.5,0.406237)">
                <path d="M413.5,173.5C443.581,172.792 467.415,184.459 485,208.5C505.435,253.065 497.935,292.231 462.5,326C431.855,349.575 397.522,357.241 359.5,349C347.939,346.031 336.606,342.698 325.5,339C345.16,361.996 370.16,373.996 400.5,375C414.212,375.693 429.851,374.227 443.472,372.534C443.472,373.534 436.41,377.056 433.5,378C412.167,384.917 354.326,405.28 313.5,415C267.711,425.358 221.711,434.691 175.5,443C171.095,444.135 166.762,445.468 162.5,447C195.499,448.694 228.499,450.361 261.5,452C277.863,453.587 294.196,455.42 310.5,457.5C300.425,459.146 290.259,460.146 280,460.5C241.51,459.294 203.01,458.794 164.5,459C185.717,465.778 207.384,470.778 229.5,474C261.693,483.215 294.359,490.215 327.5,495C300.687,494.052 274.02,491.385 247.5,487C222.377,481.594 197.21,476.427 172,471.5C168.615,471.512 165.782,472.679 163.5,475C163.82,476.653 164.82,477.653 166.5,478C195.963,490.285 226.296,499.951 257.5,507C289.59,512.951 321.59,519.285 353.5,526C388.013,534.261 419.347,548.928 447.5,570C452.54,574.693 457.04,579.527 461,584.5C444.662,576.748 428.496,568.581 412.5,560C371.098,542.566 328.098,530.899 283.5,525C229.887,515.909 179.554,497.909 132.5,471C119.236,463.397 106.236,455.397 93.5,447C92.426,446.261 91.759,445.261 91.5,444C102.949,414.929 118.116,388.095 137,363.5C167.198,324.959 202.698,292.459 243.5,266C261.04,256.48 278.874,247.646 297,239.5C296.178,246.448 295.345,253.448 294.5,260.5C294.766,264.86 295.266,269.193 296,273.5C299.414,284.644 303.081,295.644 307,306.5C305.829,269.008 317.162,236.008 341,207.5C361.181,187.609 385.348,176.276 413.5,173.5ZM409.5,203.5C436.616,200.967 455.783,211.967 467,236.5C471.667,249.167 471.667,261.833 467,274.5C456.731,298.436 438.898,313.269 413.5,319C403.167,319.667 393.008,319.678 382.5,319C375.257,317.158 368.554,315.241 361.5,313C354.051,309.954 354.051,309.954 348,302.5C324.457,273.5 343.882,240.421 371.5,218C383.34,210.719 396.006,205.885 409.5,203.5ZM284.5,339.5C286.199,339.34 287.866,339.506 289.5,340C276.896,346.929 265.729,355.762 256,366.5C251.201,379.299 242.368,388.132 229.5,393C210.877,396.574 192.544,400.907 174.5,406C184.997,395.161 194.163,383.327 202,370.5C213.793,356.052 228.96,347.552 247.5,345C260.011,343.398 272.344,341.564 284.5,339.5Z" style="fill:rgb(254,255,254);"/>
            </g>
            <g transform="matrix(1,0,0,1,0.5,0.406237)">
                <path d="M518.5,269.5C521.625,272.234 524.958,274.734 528.5,277C558.798,290.47 586.798,307.47 612.5,328C645.453,353.285 673.953,382.785 698,416.5C709.89,434.943 720.223,454.277 729,474.5C729.667,476.167 729.667,477.833 729,479.5C727.171,475.172 724.838,471.172 722,467.5C663.774,405.465 592.608,382.632 508.5,399C495.947,402.177 483.28,404.844 470.5,407C428.74,418.607 386.74,429.273 344.5,439C335.275,441.381 325.941,442.714 316.5,443C325.624,441.136 334.63,438.788 343.5,436C354.71,432.477 373.011,427.964 386.5,421C404.417,411.75 431.59,397.226 451,380.5C455.448,375.584 456.473,374.45 460.5,370C485.476,364.559 510.476,359.226 535.5,354C546.187,352.531 556.854,352.198 567.5,353C541.286,346.248 482.107,344.318 479.5,343.5C484.42,340.086 488.92,336.086 493,331.5C509.583,314.271 518.083,293.604 518.5,269.5Z" style="fill:rgb(254,255,254);"/>
            </g>
            <g transform="matrix(1,0,0,1,0.5,0.406237)">
                <path d="M705.5,520.5C708.333,524.833 713.348,532.855 714.5,536.5C696.7,507.596 670.7,493.93 636.5,495.5C626.076,496.356 616.409,499.523 607.5,505C615.859,505.835 624.192,506.835 632.5,508C608.834,511.5 587.501,520.5 568.5,535C547.38,554.404 539.214,578.237 544,606.5C546.207,611.704 550.04,615.204 555.5,617C569.176,621.215 583.176,623.049 597.5,622.5C626.818,624.447 652.818,616.28 675.5,598C679.702,594.133 683.535,589.967 687,585.5C687.107,589.37 685.778,639.619 676,659.5C666.598,680.235 652.765,697.402 634.5,711C607.267,730.278 577.267,743.611 544.5,751C504.398,760.954 464.398,771.287 424.5,782C377.951,794.63 336.618,816.63 300.5,848C289.333,860.5 278.167,873 267,885.5C261.757,891.648 254.604,903.438 250.847,910.623C258.892,900.507 259.343,900.927 263.5,896C270.821,887.322 283.599,874 297.5,865C336.55,835.179 379.883,813.512 427.5,800C466.711,790.158 506.044,780.824 545.5,772C583.279,763.935 617.612,748.602 648.5,726C667.961,710.544 683.795,692.044 696,670.5C708.591,642.546 714.925,613.212 715,582.5C716.533,597.295 720.667,614.667 722,626.5C723.008,635.45 722.667,644.5 723,653.5C730.632,629.339 735.966,604.672 739,579.5C739.333,566.5 739.667,553.5 740,540.5C751.744,587.082 746.744,631.749 725,674.5C695.938,722.557 655.438,757.391 603.5,779C583.001,786.944 562.001,793.277 540.5,798C503.833,805.333 467.167,812.667 430.5,820C382.887,830.975 338.22,848.975 296.5,874C272.694,890.631 253.694,911.464 239.5,936.5C241.935,927.338 245.717,918.75 250.847,910.738C250.898,910.659 250.975,910.591 251,910.5C252.026,906.794 254.167,895.333 257,888.5C259.803,881.74 264.081,875.67 268,869.5C283.364,848.466 300.531,828.966 319.5,811C392.092,757.358 492.458,692.508 544,668.901C567.983,657.917 584.952,650.627 617.5,647C580.012,666.497 543.012,686.831 506.5,708C478.334,725.584 438.167,749.333 421.5,760C416.107,763.452 411.211,767.62 406.5,772C414.888,771.743 423.545,771.678 431.5,769C448.333,763.333 483.551,751.639 507.5,738C555.33,710.924 602.33,682.59 648.5,653C654.221,648.279 662.583,643.25 666.5,640C668.684,638.188 670.285,635.759 672,633.5C683.502,605.515 683.502,596.773 683.502,596.773C683.502,596.773 677.179,603.125 673.43,605.515C667.097,609.553 663.838,612.257 645.5,621C595.774,638.712 549.107,633.046 505.5,604C469.403,573.461 458.903,535.628 474,490.5C483.688,466.812 500.188,449.645 523.5,439C564.356,422.465 604.023,425.132 642.5,447C662.922,458.984 680.755,474.151 696,492.5C700.145,498.16 705.5,504.302 706.792,510.5C706.904,511.041 707.667,514.325 707.5,514.825C703.856,507.181 698.583,504.387 693.5,500C688.425,495.62 681.56,494.002 677,488.5C682.798,496.477 692.75,505.167 697.5,510.5C700.339,513.688 703.164,516.927 705.5,520.5ZM651.113,668.901C652.641,668.918 644.243,683.735 641.983,686.69C637.713,692.273 626.417,701.525 616.5,708C606.417,714.583 592.579,722.274 583.5,725C576.641,727.059 556.6,729.031 562.026,724.357C571.796,715.94 626.539,684.198 651.113,668.901Z" style="fill:rgb(254,255,254);"/>
            </g>
            <g transform="matrix(1,0,0,1,0.5,0.406237)">
                <path d="M694.5,501.5C695.833,502.167 695.833,502.167 694.5,501.5Z" style="fill:rgb(254,255,254);"/>
            </g>
            <g transform="matrix(1,0,0,1,0.5,0.406237)">
                <path d="M706.5,518.5C705.833,517.167 705.833,517.167 706.5,518.5Z" style="fill:rgb(254,255,254);"/>
            </g>
            <g transform="matrix(1,0,0,1,0.5,0.406237)">
                <path d="M714.5,536.5C715.833,537.167 715.833,537.167 714.5,536.5Z" style="fill:rgb(254,255,254);"/>
            </g>
            <g transform="matrix(1,0,0,1,0.5,0.406237)">
                <path d="M350.5,563.5C350.897,562.475 351.563,562.308 352.5,563C351.906,563.464 351.239,563.631 350.5,563.5Z" style="fill:rgb(254,255,254);"/>
            </g>
            <g transform="matrix(1,0,0,1,0.5,0.406237)">
                <path d="M280.5,795.5C281.833,796.167 281.833,796.167 280.5,795.5Z" style="fill:rgb(254,255,254);"/>
            </g>
            <g transform="matrix(1,0,0,1,0.5,0.406237)">
                <path d="M239.5,936.5C238.833,937.167 238.833,937.167 239.5,936.5Z" style="fill:rgb(254,255,254);"/>
            </g>
        </g>
    </g>
</svg>
